<svg width="38" height="38" viewBox="0 0 38 38" fill="none" xmlns="http://www.w3.org/2000/svg">
<g clip-path="url(#clip0_1298_4184)">
<path d="M35.1004 24.4914C33.2193 22.6088 30.609 21.8113 27.2568 22.7097L15.3031 10.7439L15.4611 10.1465C16.1496 7.56329 15.4057 4.78661 13.5203 2.90125C11.6007 0.980114 8.87165 0.275213 6.29068 0.984185C5.92262 1.08525 5.63613 1.37446 5.53863 1.74351C5.44114 2.11257 5.54806 2.50484 5.81784 2.77476L8.69608 5.653C9.53755 6.49654 9.52933 7.84749 8.69815 8.68088C7.87354 9.50771 6.48745 9.50642 5.66613 8.68296L2.78731 5.80393C2.51739 5.53386 2.12398 5.42794 1.75492 5.52601C1.3858 5.624 1.09766 5.91121 0.996953 6.27962C0.298338 8.83224 0.985597 11.5782 2.91445 13.5071C4.79481 15.3888 7.40177 16.1892 10.756 15.2888L22.7106 27.2547C21.8185 30.6059 22.588 33.1909 24.4945 35.0973C26.4165 37.0208 29.1469 37.7205 31.7222 37.0138C32.0903 36.9129 32.3769 36.6236 32.4744 36.2545C32.572 35.8855 32.4652 35.4931 32.1952 35.2231L29.3176 32.3455C28.4762 31.502 28.4844 30.1509 29.3156 29.3176C30.1505 28.487 31.5335 28.5003 32.3476 29.3166L35.2266 32.1948C35.4965 32.4647 35.8899 32.5707 36.2589 32.4726C36.628 32.3745 36.9161 32.0875 37.0168 31.7191C37.7154 29.1669 37.0283 26.4203 35.1004 24.4914Z" fill="white"/>
<path d="M12.1817 19.7554L1.96842 29.97C0.296985 31.6414 0.296985 34.3594 1.96842 36.0308C3.63985 37.7022 6.35789 37.7022 8.02925 36.0308L18.2424 25.8165L12.1817 19.7554ZM7.02272 32.7059C6.60417 33.1244 5.92634 33.1244 5.50778 32.7059C5.0893 32.2874 5.0893 31.6094 5.50778 31.1909L12.0061 24.6914C12.4246 24.2729 13.1026 24.2729 13.521 24.6914C13.9395 25.1099 13.9395 25.7878 13.521 26.2063L7.02272 32.7059Z" fill="white"/>
<path d="M36.9721 2.87521L35.1251 1.02821C34.7775 0.680582 34.238 0.614156 33.8165 0.866932L28.1348 4.27558C27.5369 4.63421 27.4354 5.45897 27.9283 5.95188L28.3805 6.404L21.168 13.5871L24.1989 16.618L31.4115 9.43495L32.0485 10.0721C32.5415 10.5649 33.3663 10.4635 33.7248 9.86565L37.1335 4.18394C37.3862 3.76232 37.3198 3.22284 36.9721 2.87521Z" fill="white"/>
</g>
<defs>
<clipPath id="clip0_1298_4184">
<rect width="36.57" height="36.57" fill="white" transform="translate(0.714844 0.714355)"/>
</clipPath>
</defs>
</svg>
