<svg width="38" height="38" viewBox="0 0 38 38" fill="none" xmlns="http://www.w3.org/2000/svg">
<path d="M12.479 6.23367C12.3926 6.20551 12.3142 6.1572 12.2503 6.09274C12.1863 6.02828 12.1386 5.94952 12.1111 5.86297C12.0343 5.62102 11.9368 5.38611 11.8197 5.16085C11.7781 5.08029 11.7563 4.99098 11.756 4.90032C11.7558 4.80965 11.7771 4.72023 11.8183 4.63944L12.4275 3.4402L11.6019 2.61452L10.4026 3.22378C10.3218 3.26493 10.2324 3.28626 10.1417 3.28601C10.0511 3.28576 9.96177 3.26394 9.8812 3.22235C9.65594 3.10529 9.42104 3.0078 9.17909 2.93094C9.09235 2.90343 9.01341 2.85566 8.94882 2.79156C8.88423 2.72747 8.83585 2.6489 8.80767 2.56238L8.39341 1.28564H7.22417L6.80847 2.56274C6.7803 2.64926 6.73191 2.72783 6.66732 2.79192C6.60273 2.85601 6.52379 2.90379 6.43705 2.93129C6.19492 3.0092 5.95961 3.10691 5.73351 3.22343C5.65304 3.26456 5.56398 3.28607 5.47361 3.28619C5.38323 3.28631 5.29411 3.26505 5.21353 3.22414L4.01572 2.61416L3.18861 3.4402L3.7993 4.63873C3.84094 4.72018 3.86241 4.81044 3.86192 4.90192C3.86142 4.9934 3.83896 5.08342 3.79644 5.16442C3.6792 5.38969 3.58147 5.62459 3.50431 5.86654C3.47653 5.95241 3.42876 6.03047 3.36494 6.09429C3.30112 6.15812 3.22306 6.20588 3.13718 6.23367L1.85938 6.64865V7.81789L3.13718 8.23359C3.22285 8.26161 3.30069 8.30947 3.36436 8.37327C3.42803 8.43706 3.47574 8.51499 3.5036 8.60072C3.58238 8.84331 3.68079 9.07908 3.79787 9.30569C3.83981 9.38666 3.86181 9.47646 3.86206 9.56765C3.86231 9.65883 3.84079 9.74876 3.7993 9.82995L3.18861 11.0256L4.01572 11.8527L5.21353 11.242C5.29458 11.2008 5.38434 11.1795 5.47529 11.18C5.56625 11.1805 5.65577 11.2027 5.73637 11.2449C5.96246 11.3616 6.19777 11.4596 6.43991 11.5377C6.52597 11.5655 6.60424 11.6132 6.6683 11.677C6.73236 11.7408 6.78039 11.8189 6.80847 11.9049L7.22417 13.1827H8.39341L8.80767 11.9034C8.83588 11.8168 8.88436 11.7382 8.94909 11.6741C9.01381 11.61 9.09291 11.5623 9.1798 11.5349C9.4204 11.459 9.6539 11.3622 9.87763 11.2456C9.9585 11.2032 10.0484 11.1807 10.1397 11.1801C10.231 11.1795 10.3212 11.2007 10.4026 11.242L11.6019 11.8527L12.4275 11.0256L11.8183 9.82924C11.7774 9.74853 11.7561 9.65929 11.7562 9.56881C11.7563 9.47832 11.7779 9.38914 11.819 9.30855C11.9357 9.0823 12.0334 8.84673 12.1111 8.60429C12.1386 8.51774 12.1863 8.43897 12.2503 8.37451C12.3142 8.31005 12.3926 8.26174 12.479 8.23359L13.7568 7.81789V6.64865L12.479 6.23367ZM7.80914 10.4571C7.17168 10.4573 6.54846 10.2685 6.01831 9.91448C5.48816 9.5605 5.07488 9.05726 4.83074 8.4684C4.58659 7.87953 4.52255 7.2315 4.6467 6.60624C4.77086 5.98098 5.07764 5.40658 5.52825 4.95567C5.97885 4.50477 6.55305 4.19761 7.17823 4.07304C7.8034 3.94846 8.45148 4.01208 9.0405 4.25583C9.62953 4.49958 10.133 4.91252 10.4874 5.44244C10.8417 5.97236 11.0309 6.59545 11.0312 7.23291C11.0302 8.08735 10.6905 8.90654 10.0865 9.51092C9.48254 10.1153 8.66358 10.4555 7.80914 10.4571ZM9.88763 7.23291C9.88784 7.6443 9.76603 8.04651 9.53761 8.38866C9.30919 8.7308 8.98441 8.99751 8.60438 9.15504C8.22435 9.31257 7.80613 9.35384 7.40263 9.27364C6.99914 9.19343 6.6285 8.99535 6.3376 8.70446C6.0467 8.41356 5.84862 8.04292 5.76842 7.63942C5.68821 7.23593 5.72948 6.81771 5.88701 6.43767C6.04454 6.05764 6.31125 5.73287 6.6534 5.50445C6.99554 5.27602 7.39775 5.15421 7.80914 5.15442C8.36009 5.15542 8.88818 5.37473 9.27775 5.7643C9.66733 6.15388 9.88663 6.68197 9.88763 7.23291Z" fill="white"/>
<path d="M24.2891 10.0928H25.9676V16.0047H24.2891V10.0928ZM32.6637 19.0207C32.6637 19.2556 32.757 19.4808 32.9231 19.6469C33.0892 19.813 33.3145 19.9063 33.5494 19.9063C33.7843 19.9063 34.0096 19.813 34.1757 19.6469C34.3418 19.4808 34.4351 19.2556 34.4351 19.0207V17.7421L32.6637 17.7429V19.0207ZM36.0236 12.1445H33.3266C33.1748 12.1445 33.0293 12.0842 32.922 11.9769C32.8147 11.8696 32.7544 11.7241 32.7544 11.5724C32.7544 11.4206 32.8147 11.2751 32.922 11.1678C33.0293 11.0605 33.1748 11.0003 33.3266 11.0003H35.4522C35.4633 11.0001 35.474 10.9957 35.4821 10.9881C35.4901 10.9804 35.495 10.9699 35.4958 10.9588V10.321C35.495 10.3099 35.4901 10.2995 35.4821 10.2918C35.474 10.2841 35.4633 10.2797 35.4522 10.2796H30.6252C30.4735 10.2796 30.328 10.2193 30.2207 10.112C30.1134 10.0047 30.0531 9.85919 30.0531 9.70745C30.0531 9.55572 30.1134 9.4102 30.2207 9.3029C30.328 9.19561 30.4735 9.13533 30.6252 9.13533H31.5195V8.8682H31.5002C29.8017 8.8482 29.4953 8.84534 28.6289 10.6203C28.582 10.7166 28.509 10.7978 28.4182 10.8546C28.3274 10.9115 28.2225 10.9416 28.1153 10.9417H27.1118V15.1565H28.4468C28.5473 15.1566 28.6461 15.1832 28.7331 15.2336C28.8201 15.284 28.8923 15.3565 28.9425 15.4437C29.621 16.6208 29.9824 16.6165 31.5002 16.5993L31.5524 16.5986H35.4522C35.4633 16.5984 35.474 16.5941 35.4821 16.5864C35.4901 16.5787 35.495 16.5683 35.4958 16.5572V15.9194C35.4952 15.9082 35.4903 15.8977 35.4822 15.89C35.4741 15.8823 35.4634 15.878 35.4522 15.8779H33.3266C33.1748 15.8779 33.0293 15.8176 32.922 15.7104C32.8147 15.6031 32.7544 15.4575 32.7544 15.3058C32.7544 15.1541 32.8147 15.0085 32.922 14.9013C33.0293 14.794 33.1748 14.7337 33.3266 14.7337H36.0236C36.0347 14.7329 36.0452 14.7281 36.0528 14.72C36.0605 14.7119 36.0649 14.7013 36.065 14.6901V14.0523C36.0648 14.0414 36.0603 14.031 36.0526 14.0233C36.0449 14.0156 36.0345 14.0111 36.0236 14.0109H33.3266C33.1748 14.0109 33.0293 13.9506 32.922 13.8433C32.8147 13.736 32.7544 13.5905 32.7544 13.4387C32.7544 13.287 32.8147 13.1415 32.922 13.0342C33.0293 12.9269 33.1748 12.8666 33.3266 12.8666H36.0236C36.0344 12.8661 36.0447 12.8616 36.0524 12.8539C36.06 12.8463 36.0645 12.836 36.065 12.8252V12.1874C36.0648 12.1763 36.0604 12.1657 36.0527 12.1577C36.0451 12.1497 36.0347 12.1448 36.0236 12.1441V12.1445ZM32.3559 5.87974C32.4487 5.92805 32.5264 6.00087 32.5807 6.09028C32.635 6.17969 32.6637 6.28227 32.6637 6.38687V9.13533H34.4351V6.38651C34.4351 6.28192 34.4639 6.17934 34.5181 6.08992C34.5724 6.00051 34.6502 5.9277 34.7429 5.87939C35.0953 5.69689 35.4011 5.43587 35.6366 5.11647C35.8721 4.79707 36.0311 4.42783 36.1013 4.03724C36.1715 3.64665 36.151 3.24516 36.0415 2.86374C35.9319 2.48232 35.7361 2.13118 35.4693 1.8374V3.33734C35.4687 3.72062 35.3161 4.088 35.0449 4.35889C34.7738 4.62977 34.4062 4.78204 34.023 4.78229H33.0737C32.6906 4.78185 32.3234 4.62948 32.0525 4.35859C31.7816 4.08771 31.6292 3.72043 31.6288 3.33734V1.8374C31.3622 2.13129 31.1666 2.48249 31.0572 2.86391C30.9477 3.24534 30.9273 3.6468 30.9976 4.03734C31.0679 4.42788 31.2269 4.79707 31.4624 5.11644C31.6979 5.43582 32.0036 5.69684 32.3559 5.87939V5.87974Z" fill="white"/>
<path d="M29.9474 35.5691H28.2175V25.7759L29.3539 26.4323C29.4408 26.4824 29.5394 26.5088 29.6397 26.5088C29.7401 26.5088 29.8386 26.4823 29.9255 26.4322C30.0124 26.3821 30.0846 26.3099 30.1349 26.2231C30.1851 26.1362 30.2116 26.0377 30.2117 25.9374V21.8697C30.2117 21.7692 30.1852 21.6705 30.1349 21.5834C30.0846 21.4964 30.0123 21.4242 29.9253 21.374L19.2857 15.2313C19.1989 15.1812 19.1003 15.1548 19 15.1548C18.8997 15.1548 18.8012 15.1812 18.7143 15.2313L14.2531 17.807V15.0885C14.2531 15.0134 14.2383 14.939 14.2095 14.8697C14.1807 14.8003 14.1386 14.7373 14.0854 14.6842C14.0323 14.6311 13.9692 14.5891 13.8998 14.5604C13.8304 14.5317 13.756 14.517 13.6809 14.5171H10.3546C10.203 14.517 10.0575 14.5772 9.95026 14.6843C9.84297 14.7915 9.78263 14.9369 9.78252 15.0885V20.3883L8.07473 21.374C7.98769 21.4242 7.9154 21.4964 7.86513 21.5834C7.81485 21.6705 7.78836 21.7692 7.78831 21.8697V25.9374C7.78844 26.0377 7.81494 26.1362 7.86517 26.2231C7.9154 26.3099 7.98759 26.3821 8.0745 26.4322C8.1614 26.4823 8.25997 26.5088 8.3603 26.5088C8.46063 26.5088 8.55921 26.4824 8.64614 26.4323L9.78252 25.7759V35.5691H8.05259C7.90085 35.5691 7.75533 35.6294 7.64804 35.7367C7.54075 35.844 7.48047 35.9895 7.48047 36.1412C7.48047 36.293 7.54075 36.4385 7.64804 36.5458C7.75533 36.6531 7.90085 36.7134 8.05259 36.7134H29.9474C30.0992 36.7134 30.2447 36.6531 30.352 36.5458C30.4593 36.4385 30.5196 36.293 30.5196 36.1412C30.5196 35.9895 30.4593 35.844 30.352 35.7367C30.2447 35.6294 30.0992 35.5691 29.9474 35.5691ZM25.7533 28.6922V32.4157C25.7533 32.4908 25.7386 32.5652 25.7098 32.6346C25.6811 32.7041 25.6389 32.7671 25.5858 32.8203C25.5327 32.8734 25.4696 32.9155 25.4002 32.9443C25.3307 32.973 25.2563 32.9878 25.1812 32.9878H20.6057C20.5305 32.9878 20.4561 32.973 20.3867 32.9443C20.3173 32.9155 20.2542 32.8734 20.2011 32.8203C20.1479 32.7671 20.1058 32.7041 20.0771 32.6346C20.0483 32.5652 20.0335 32.4908 20.0335 32.4157V28.6922C20.0337 28.5406 20.094 28.3952 20.2013 28.2881C20.3086 28.1809 20.454 28.1208 20.6057 28.1208H25.1812C25.3328 28.1208 25.4783 28.1809 25.5856 28.2881C25.6929 28.3952 25.7532 28.5406 25.7533 28.6922ZM10.9268 15.6606H13.1095V18.4669L10.9268 19.728V15.6606ZM8.93255 24.9467V22.1996L19 16.387L29.0675 22.1996V24.9467L19.2857 19.2994C19.199 19.2489 19.1004 19.2223 19 19.2223C18.8996 19.2223 18.8011 19.2489 18.7143 19.2994L8.93255 24.9467ZM16.9622 35.5691V29.2244H13.3924V35.5691H12.2489V28.6523C12.2488 28.5771 12.2636 28.5027 12.2924 28.4333C12.3211 28.3639 12.3633 28.3008 12.4164 28.2477C12.4695 28.1945 12.5326 28.1524 12.602 28.1236C12.6714 28.0949 12.7458 28.0801 12.821 28.0801H17.5344C17.686 28.0802 17.8314 28.1406 17.9385 28.2479C18.0457 28.3552 18.1058 28.5006 18.1058 28.6523V35.5691H16.9622ZM21.1778 29.2644H24.6091V31.8443H21.1778V29.2644Z" fill="white"/>
</svg>
