<svg width="38" height="38" viewBox="0 0 38 38" fill="none" xmlns="http://www.w3.org/2000/svg">
<g clip-path="url(#clip0_1298_4238)">
<path d="M3.11572 14.1119C3.30795 14.7709 3.57472 15.4065 3.9121 16.0028L2.95095 17.215C2.63711 17.6112 2.67241 18.1761 3.02549 18.5331L4.68102 20.1887C5.03802 20.5457 5.60294 20.577 5.99917 20.2632L7.20356 19.3099C7.8234 19.6669 8.48247 19.9454 9.16901 20.1416L9.34947 21.6912C9.40832 22.1933 9.83201 22.5699 10.3342 22.5699H12.6762C13.1784 22.5699 13.6021 22.1933 13.6609 21.6912L13.8335 20.1965C14.5711 20.0043 15.2772 19.7179 15.9402 19.3452L17.1054 20.2671C17.5016 20.5809 18.0665 20.5456 18.4235 20.1926L20.0791 18.537C20.4361 18.18 20.4674 17.6151 20.1536 17.2189L19.2474 16.0694C19.624 15.4182 19.9182 14.7238 20.1144 13.998L21.511 13.8372C22.0132 13.7784 22.3897 13.3547 22.3897 12.8525V10.5104C22.3897 10.0083 22.0131 9.58459 21.511 9.52575L20.134 9.3649C19.9456 8.64698 19.6632 7.96045 19.3023 7.31706L20.1497 6.24607C20.4636 5.84984 20.4282 5.28491 20.0752 4.92791L18.4236 3.2763C18.0666 2.9193 17.5016 2.88792 17.1054 3.20177L16.0658 4.02561C15.391 3.62938 14.6692 3.3273 13.912 3.1233L13.7551 1.77769C13.6963 1.27554 13.2726 0.898926 12.7704 0.898926H10.4284C9.9262 0.898926 9.50251 1.27554 9.44367 1.77769L9.28674 3.1233C8.50998 3.33123 7.76852 3.64507 7.07806 4.05699L5.99921 3.20177C5.60298 2.88792 5.03806 2.92323 4.68106 3.2763L3.02553 4.93184C2.66853 5.28884 2.63715 5.85376 2.95099 6.24999L3.8533 7.3916C3.49237 8.04283 3.21776 8.73721 3.0373 9.45906L1.59361 9.62383C1.09146 9.68267 0.714844 10.1064 0.714844 10.6085V12.9506C0.714844 13.4527 1.09146 13.8764 1.59361 13.9353L3.11572 14.1119ZM11.6013 7.7761C13.7355 7.7761 15.4734 9.51402 15.4734 11.6482C15.4734 13.7823 13.7355 15.5202 11.6013 15.5202C9.4672 15.5202 7.72925 13.7823 7.72925 11.6482C7.72925 9.51402 9.46716 7.7761 11.6013 7.7761Z" fill="white"/>
<path d="M34.7561 14.6884L33.5203 13.6449C33.1398 13.3232 32.5788 13.3389 32.2179 13.6802L31.5353 14.3197C30.9586 14.0411 30.3466 13.845 29.715 13.7312L29.5228 12.7897C29.4248 12.3032 28.9736 11.9658 28.4792 12.0051L26.8668 12.1424C26.3725 12.1855 25.9842 12.5896 25.9685 13.0878L25.9371 14.045C25.3172 14.2687 24.7327 14.5747 24.1992 14.9591L23.3832 14.4177C22.9673 14.1431 22.4142 14.2216 22.0925 14.6021L21.049 15.8457C20.7272 16.2263 20.7429 16.7873 21.0842 17.1482L21.7982 17.9092C21.5511 18.4663 21.3745 19.0509 21.2726 19.6511L20.2526 19.859C19.7661 19.9571 19.4287 20.4082 19.4679 20.9026L19.6052 22.5149C19.6484 23.0093 20.0525 23.3976 20.5507 23.4133L21.6531 23.4486C21.8532 23.9743 22.116 24.4726 22.4338 24.9394L21.8179 25.8691C21.5433 26.285 21.6217 26.8381 22.0022 27.1598L23.238 28.2034C23.6186 28.525 24.1795 28.5094 24.5405 28.168L25.3487 27.4109C25.8783 27.658 26.4353 27.8424 27.0081 27.9523L27.2317 29.0586C27.3298 29.545 27.781 29.8824 28.2753 29.8432L29.8876 29.7059C30.382 29.6627 30.7703 29.2587 30.786 28.7604L30.8213 27.6776C31.4098 27.4697 31.9668 27.1872 32.4808 26.8381L33.3713 27.4266C33.7872 27.7012 34.3403 27.6227 34.662 27.2422L35.7056 26.0064C36.0272 25.6259 36.0115 25.0649 35.6702 24.704L34.9523 23.9429C35.2152 23.3859 35.4074 22.7974 35.5172 22.1932L36.498 21.9931C36.9844 21.8951 37.3218 21.4439 37.2826 20.9496L37.1453 19.3372C37.1021 18.8429 36.698 18.4545 36.1998 18.4388L35.2151 18.4074C35.0111 17.8346 34.7365 17.2933 34.3952 16.7911L34.9326 15.983C35.2151 15.5672 35.1367 15.0101 34.7561 14.6884ZM28.6793 24.0096C26.9375 24.1587 25.3996 22.8601 25.2545 21.1183C25.1053 19.3765 26.404 17.8386 28.1457 17.6935C29.8876 17.5444 31.4255 18.843 31.5706 20.5848C31.7197 22.3266 30.4211 23.8645 28.6793 24.0096Z" fill="white"/>
<path d="M8.75785 28.3489C8.26354 28.3999 7.883 28.8157 7.87908 29.314L7.86731 30.3065C7.85946 30.8047 8.22823 31.2284 8.72254 31.2912L9.45223 31.3853C9.57384 31.8287 9.74646 32.2524 9.97007 32.6525L9.49931 33.2331C9.18546 33.6215 9.209 34.1786 9.55815 34.5356L10.2525 35.2457C10.6017 35.6027 11.1588 35.6419 11.555 35.3359L12.1395 34.8848C12.5514 35.128 12.9869 35.3203 13.4419 35.4536L13.5204 36.2068C13.5714 36.7011 13.9873 37.0817 14.4855 37.0856L15.4781 37.0974C15.9762 37.1052 16.4 36.7364 16.4627 36.2421L16.553 35.5281C17.0473 35.4065 17.5181 35.2221 17.9653 34.9789L18.5145 35.4222C18.9029 35.7361 19.46 35.7125 19.817 35.3634L20.5271 34.669C20.8841 34.3199 20.9233 33.7628 20.6174 33.3665L20.1975 32.8212C20.4564 32.3896 20.6565 31.9306 20.7939 31.4481L21.4451 31.3814C21.9394 31.3304 22.3199 30.9146 22.3238 30.4163L22.3356 29.4238C22.3435 28.9256 21.9747 28.5018 21.4804 28.4391L20.8448 28.3567C20.7232 27.8781 20.5428 27.4152 20.3074 26.9836L20.7036 26.4972C21.0175 26.1088 20.9939 25.5517 20.6448 25.1947L19.9504 24.4846C19.6013 24.1276 19.0441 24.0884 18.6479 24.3944L18.1732 24.7592C17.726 24.4885 17.2474 24.2806 16.7452 24.1394L16.6824 23.5235C16.6314 23.0291 16.2156 22.6486 15.7174 22.6447L14.7248 22.6329C14.2266 22.6251 13.8029 22.9939 13.7401 23.4882L13.6616 24.1002C13.1438 24.2335 12.6456 24.4376 12.1827 24.7043L11.6923 24.3042C11.3039 23.9903 10.7468 24.0139 10.3898 24.363L9.6758 25.0614C9.31881 25.4105 9.27957 25.9676 9.58557 26.3638L10.0053 26.9052C9.76211 27.3367 9.56988 27.7957 9.44434 28.2783L8.75785 28.3489ZM15.1642 27.2268C16.5883 27.2425 17.7299 28.4156 17.7142 29.8396C17.6985 31.2637 16.5255 32.4053 15.1014 32.3896C13.6773 32.3739 12.5358 31.201 12.5514 29.7768C12.5671 28.3528 13.7401 27.2112 15.1642 27.2268Z" fill="white"/>
</g>
<defs>
<clipPath id="clip0_1298_4238">
<rect width="36.57" height="36.57" fill="white" transform="translate(0.714844 0.712891)"/>
</clipPath>
</defs>
</svg>
