<svg width="38" height="38" viewBox="0 0 38 38" fill="none" xmlns="http://www.w3.org/2000/svg">
<g clip-path="url(#clip0_1298_4277)">
<path d="M7.70075 11.5758L9.72403 12.7506C9.90966 12.8584 10.0099 13.0674 9.98187 13.2802C9.93009 13.6735 9.90316 14.0747 9.90316 14.4822H14.8048C14.8048 12.1326 16.7095 10.2279 19.0592 10.2279C21.4088 10.2279 23.3135 12.1326 23.3135 14.4822H28.2152C28.2152 14.0723 28.1879 13.6687 28.1355 13.2731C28.1078 13.0639 28.2044 12.8579 28.3849 12.7486L30.3158 11.5792C30.5599 11.4313 30.6426 11.1163 30.5025 10.8676L28.0865 6.58003C27.947 6.33239 27.6366 6.23947 27.384 6.36968L25.3715 7.40657C25.1851 7.50256 24.9604 7.47849 24.7972 7.34707C24.0961 6.78266 23.31 6.31961 22.4612 5.97976C22.2667 5.90184 22.1356 5.71756 22.1281 5.50807L22.0487 3.28216C22.0385 2.99781 21.8051 2.77246 21.5205 2.77246H16.5978C16.3132 2.77246 16.0797 2.99774 16.0696 3.28216L15.9901 5.50807C15.9826 5.71756 15.8516 5.90184 15.657 5.97976C14.8063 6.32039 14.0186 6.78473 13.3163 7.35092C13.1555 7.48049 12.9348 7.50592 12.7497 7.41435L10.6158 6.35861C10.364 6.23404 10.0588 6.32818 9.92095 6.57288L7.50561 10.8594C7.36369 11.1112 7.45061 11.4306 7.70075 11.5758Z" fill="white"/>
<path d="M2.33361 34.6606C2.4921 35.002 2.8343 35.2204 3.21072 35.2204H7.61476V32.4868H1.32422L2.33361 34.6606Z" fill="white"/>
<path d="M9.75 32.4868H28.3139V35.2204H9.75V32.4868Z" fill="white"/>
<path d="M30.4532 35.2204H34.8733C35.2562 35.2204 35.6029 34.9945 35.7577 34.6444L36.7118 32.4868H30.4531V35.2204H30.4532Z" fill="white"/>
<path d="M0.714844 30.3442H37.2848V21.9019H0.714844V30.3442ZM8.63739 25.5537C9.22773 25.5537 9.70621 26.0334 9.70621 26.6251C9.70621 27.2168 9.22773 27.6965 8.63739 27.6965C8.04706 27.6965 7.56858 27.2168 7.56858 26.6251C7.56858 26.0334 8.04713 25.5537 8.63739 25.5537ZM4.36313 25.5537C4.95346 25.5537 5.43195 26.0334 5.43195 26.6251C5.43195 27.2168 4.95339 27.6965 4.36313 27.6965C3.77287 27.6965 3.29431 27.2168 3.29431 26.6251C3.29431 26.0334 3.77287 25.5537 4.36313 25.5537Z" fill="white"/>
<path d="M36.3178 16.686H1.68188C1.14783 16.686 0.714844 17.119 0.714844 17.6531V19.7589H37.2848V17.6531C37.2848 17.119 36.8519 16.686 36.3178 16.686Z" fill="white"/>
</g>
<defs>
<clipPath id="clip0_1298_4277">
<rect width="36.57" height="36.57" fill="white" transform="translate(0.714844 0.711426)"/>
</clipPath>
</defs>
</svg>
