<!DOCTYPE svg PUBLIC "-//W3C//DTD SVG 1.1//EN" "http://www.w3.org/Graphics/SVG/1.1/DTD/svg11.dtd">
<!-- Uploaded to: SVG Repo, www.svgrepo.com, Transformed by: SVG Repo Mixer Tools -->
<svg fill="#ffffff" height="800px" width="800px" version="1.1" id="Layer_1" xmlns="http://www.w3.org/2000/svg" xmlns:xlink="http://www.w3.org/1999/xlink" viewBox="0 0 503.656 503.656" xml:space="preserve" stroke="#ffffff">
<g id="SVGRepo_bgCarrier" stroke-width="0"/>
<g id="SVGRepo_tracerCarrier" stroke-linecap="round" stroke-linejoin="round"/>
<g id="SVGRepo_iconCarrier"> <g> <g> <path d="M475.068,380.22c-10.458-7.462-22.662-11.398-35.009-12.07c-45.09-29.528-75.423-52.258-92.622-69.456l-54.834-54.834 l33.414-37.401c5.926,3.19,12.271,5.405,18.785,6.287c4.977,0.672,8.855,0.797,11.961,0.898c6.95,0.227,8.603,0.277,15.108,6.203 c-3.273,2.854-5.154,6.874-5.296,11.306c-0.159,4.717,1.67,9.35,5.019,12.699l29.679,29.679c4.91,4.91,11.356,7.361,17.802,7.361 c6.455,0,12.901-2.451,17.811-7.361l59.342-59.358c4.759-4.751,7.378-11.079,7.378-17.802s-2.619-13.052-7.378-17.802 l-29.671-29.688c-3.232-3.223-7.688-5.07-12.087-4.919c-4.532,0.059-8.754,1.889-11.81,4.776c-6.01-6.052-6.06-7.688-6.287-14.605 c-0.109-3.106-0.235-6.975-0.915-11.944c-1.654-12.145-7.537-23.795-16.56-32.827l-30.586-30.586 c-17.928-17.928-26.792-26.271-49.026-36.402C290.63,0.216,241.025,4.177,168.069,35.988c-3.643,1.586-5.674,5.515-4.86,9.409 c0.806,3.895,4.239,6.681,8.217,6.681l10.727-0.05c37.703-0.277,56.555-0.42,90.171,33.196 c7.739,7.747,11.793,17.853,11.415,28.479c-0.386,10.609-5.078,20.942-13.211,29.083c-0.059,0.059-0.084,0.143-0.134,0.201 c-0.059,0.059-0.143,0.084-0.193,0.143L233.504,184.2l-28.513-27.95c-30.67-30.686-52.795-60.164-69.615-92.731 c-0.873-16.434-7.655-32.021-19.481-43.847C101.551,5.319,81.742-1.665,61.481,0.375c-2.837,0.294-5.321,1.998-6.622,4.532 c-1.293,2.535-1.217,5.548,0.21,8.016l23.921,41.438l-0.042,0.084C73.55,65.382,62.219,71.904,50.015,71.149L26.564,30.701 c-1.452-2.526-4.113-4.104-7.025-4.197c-2.996-0.025-5.657,1.351-7.252,3.777c-19.934,30.3-12.238,70.631,17.526,91.849 c10.483,7.47,22.704,11.365,35.068,12.028c32.541,16.812,61.986,38.92,92.697,69.624l31.14,30.535L48.882,390.813l26.036,26.036 c3.273,3.282,3.273,8.586,0,11.868c-1.645,1.637-3.794,2.459-5.934,2.459c-2.149,0-4.297-0.823-5.934-2.459l-25.373-25.365 l-11.205,12.531l24.702,24.702c3.282,3.282,3.282,8.595,0,11.868c-1.637,1.637-3.785,2.459-5.934,2.459 c-2.149,0-4.297-0.823-5.934-2.459l-24.03-24.03l-4.927,5.506c-6.488,6.497-10.156,15.041-10.341,24.081 c-0.185,9.174,3.24,17.735,9.619,24.114l11.868,11.868c6.228,6.236,14.521,9.636,23.426,9.636c0.235,0,0.47,0,0.697-0.008 c9.048-0.185,17.601-3.853,24.408-10.693L247.79,294.003l52.165,52.165c5.078,5.078,10.702,11.44,16.77,18.843l18.843-18.843 c3.273-3.282,8.586-3.282,11.868,0c3.273,3.282,3.273,8.586,0,11.868l-20.245,20.245c3.257,4.264,6.614,8.771,10.122,13.623 l21.991-21.999c3.282-3.273,8.595-3.273,11.868,0c3.282,3.282,3.282,8.595,0,11.868l-24.005,24.014 c6.983,10.013,14.403,21.009,22.335,33.121c0.898,16.409,7.672,31.962,19.481,43.772c12.691,12.682,29.662,19.657,47.415,19.657 c2.325,0,4.667-0.126,7-0.361c2.837-0.302,5.321-2.006,6.622-4.532c1.293-2.535,1.217-5.557-0.21-8.024l-23.921-41.43 c5.431-10.987,16.779-17.576,29.075-16.787l23.351,40.44c1.452,2.526,4.113,4.113,7.025,4.197c2.862-0.05,5.649-1.351,7.252-3.777 C512.527,441.761,504.831,401.422,475.068,380.22z M118.707,67.85c-0.025,2.014-0.185,4.004-0.445,5.968 c-0.025,0.227-0.067,0.453-0.101,0.68c-0.235,1.654-0.571,3.282-0.965,4.885c-0.134,0.529-0.277,1.049-0.42,1.57 c-0.353,1.242-0.764,2.468-1.209,3.676c-0.285,0.764-0.579,1.528-0.898,2.283c-0.395,0.915-0.823,1.813-1.267,2.703 c-0.453,0.906-0.915,1.813-1.427,2.694c-0.411,0.713-0.865,1.393-1.309,2.082c-0.613,0.948-1.225,1.897-1.905,2.803 c-0.47,0.63-0.99,1.234-1.486,1.838c-0.722,0.881-1.435,1.763-2.207,2.594c-0.663,0.697-1.385,1.351-2.082,2.014 c-0.705,0.671-1.385,1.368-2.132,2.006c-1.351,1.15-2.795,2.241-4.289,3.273c-0.159,0.109-0.294,0.235-0.453,0.336 c-2.031,1.377-4.163,2.56-6.371,3.592c-0.806,0.378-1.679,0.638-2.51,0.974c-1.402,0.562-2.803,1.142-4.247,1.578 c-1.276,0.378-2.602,0.613-3.911,0.881c-1.032,0.227-2.056,0.495-3.106,0.646c-1.628,0.235-3.29,0.327-4.961,0.403 c-11.054,0.546-22.285-2.333-31.459-8.872C21.385,95.515,14.133,73.113,20.051,52.985l17.567,30.443 c1.41,2.434,3.928,4.004,6.732,4.18l4.583,0.302c18.927,1.225,36.646-8.998,45.064-26.02l2.031-4.113 c1.242-2.518,1.15-5.498-0.252-7.923l-18.65-32.306c10.089,1.754,19.481,6.564,26.901,13.992 c9.678,9.669,14.873,22.704,14.689,36.268C118.716,67.825,118.707,67.833,118.707,67.85z M284.192,73.356 c-26.658-26.658-46.961-34.799-69.59-37.2c47.205-15.083,83.036-14.302,117.726,1.494c19.414,8.847,26.498,15.385,44.116,32.995 l30.577,30.586c6.455,6.446,10.643,14.689,11.81,23.216c0.562,4.13,0.663,7.378,0.764,10.248 c0.311,9.384,1.016,15.662,11.155,25.877c3.257,3.265,7.856,5.137,12.439,5.061c4.465-0.042,8.561-1.796,11.499-4.877 l29.679,29.688c1.578,1.586,2.451,3.685,2.451,5.926c0,2.241-0.873,4.348-2.459,5.934l-59.342,59.358 c-3.282,3.273-8.603,3.273-11.877,0l-29.595-29.746c2.954-2.879,4.65-6.774,4.784-11.054c0.159-4.793-1.687-9.476-5.061-12.808 c-10.232-10.173-16.527-10.878-25.953-11.188c-2.879-0.092-6.127-0.193-10.265-0.764c-8.435-1.133-16.636-5.321-23.09-11.759 l-36.008-36c7.714-10.013,12.12-21.848,12.557-34.035C301.063,98.973,295.272,84.427,284.192,73.356z M484.829,449.357 l-17.567-30.443c-1.41-2.434-3.937-4.004-6.74-4.18l-4.465-0.285c-19.02-1.217-36.78,9.023-45.224,26.112l-1.981,4.012 c-1.242,2.51-1.15,5.481,0.252,7.915l18.65,32.315c-10.089-1.763-19.473-6.58-26.901-13.992 c-9.644-9.644-14.84-22.62-14.697-36.134c0-0.017,0.017-0.034,0.017-0.05c0.017-2.023,0.176-4.021,0.428-5.985 c0.025-0.243,0.076-0.487,0.109-0.73c0.235-1.637,0.554-3.257,0.94-4.851c0.143-0.554,0.294-1.116,0.453-1.67 c0.344-1.209,0.739-2.392,1.167-3.567c0.302-0.814,0.613-1.62,0.948-2.417c0.378-0.865,0.781-1.721,1.2-2.568 c0.478-0.957,0.965-1.905,1.502-2.829c0.386-0.672,0.806-1.309,1.225-1.956c0.638-0.99,1.276-1.972,1.981-2.921 c0.445-0.596,0.94-1.167,1.41-1.746c0.739-0.906,1.477-1.813,2.275-2.669c0.655-0.697,1.368-1.343,2.065-2.006 c0.705-0.672,1.385-1.368,2.132-2.006c1.502-1.276,3.08-2.501,4.751-3.626c2.006-1.351,4.113-2.535,6.278-3.55 c0.982-0.462,2.023-0.772,3.038-1.167c1.217-0.478,2.409-1.016,3.66-1.385c1.645-0.495,3.349-0.814,5.044-1.141 c0.646-0.126,1.276-0.319,1.931-0.411c2.359-0.352,4.767-0.554,7.21-0.579c0.159,0,0.311-0.025,0.47-0.025 c10.223,0,20.463,3.03,28.941,9.073C483.495,406.836,490.746,429.23,484.829,449.357z"/> </g> </g> </g>
</svg>